PathFileType	4	(X/Y/Z)	C:/Users/beibeiliu/ov580/test_trc/User3\sequence.4_training_dense_left.trc
DataRate	CameraRate	NumFrames	NumMarkers	Units	OrigDataRate	OrigDataStartFrame	OrigNumFrames
120	120	15	19	mm	120	131	209
Frame#	Time	ThumbCMC			ThumbMCP			ThumbIP			ThumbTip			IndexMCP			IndexPIP			IndexTip			MiddleMCP			MiddlePIP			MiddleTip			RingMCP			RingPIP			RingTip			PinkyMCP			PinkyPIP			PinkyTip			BackHand1			BackHand2			BackHand3	
		X0	Y0	Z0	X1	Y1	Z1	X2	Y2	Z2	X3	Y3	Z3	X4	Y4	Z4	X5	Y5	Z5	X6	Y6	Z6	X7	Y7	Z7	X8	Y8	Z8	X9	Y9	Z9	X10	Y10	Z10	X11	Y11	Z11	X12	Y12	Z12	X13	Y13	Z13	X14	Y14	Z14	X15	Y15	Z15	X16	Y16	Z16	X17	Y17	Z17	X18	Y18	Z18	
130	1.08333	-284.598	-6.19835	-12.0602	-286.614	4.36442	-40.6475	-287.534	10.4277	-68.806	-288.778	18.6377	-87.0921	-304.329	-51.2141	-68.6441	-303.562	-60.3064	-96.875	-299.109	-66.6556	-122.159	-298.987	-78.0721	-65.4512	-297.214	-87.814	-91.4478	-289.55	-96.0016	-120.881	-281.911	-93.3733	-48.8685	-280.186	-104.016	-78.0085	-270.344	-115.232	-102.021	-263.665	-99.7815	-36.1214	-257.015	-109.864	-52.9549	-246.574	-121.536	-72.669	-289.006	-74.4202	-3.8189	-281.215	-59.5675	23.8719	-298.604	-36.9894	0.724776	
131	1.09167	-284.112	-1.46623	-9.44618	-285.412	9.2023	-38.3322	-287.375	18.4038	-64.8727	-286.896	24.0682	-86.38	-310.893	-44.4828	-71.0582	-311.678	-48.718	-94.5712	-307.626	-57.649	-118.98	-308.852	-71.2898	-67.0633	-307.457	-79.09	-93.3709	-300.28	-90.1771	-123.776	-293.413	-86.8945	-52.5278	-292.835	-100.271	-76.5649	-284.767	-110.197	-99.4571	-276.375	-92.9311	-37.6707	-268.552	-107.1	-54.7684	-261.054	-120.993	-76.0038	-294.592	-67.7032	-1.68516	-290.176	-53.6652	23.6224	-301.934	-31.4641	1.62655	
132	1.1	-285.659	4.14792	-9.36555	-284.897	18.5572	-37.6683	-287.353	25.7913	-64.5993	-284.77	32.593	-82.25	-316.246	-35.3803	-68.6561	-318.273	-40.3886	-95.5172	-316.281	-43.4028	-119.67	-317.377	-60.8288	-67.968	-317.093	-69.7402	-93.8195	-312.903	-78.6467	-126.075	-306.391	-75.608	-55.7649	-305.415	-90.5187	-78.9708	-301.7	-97.7643	-102.976	-288.094	-86.839	-38.9866	-283.568	-100.77	-59.2587	-276.763	-112.89	-79.3155	-302.391	-58.7949	-5.49608	-293.768	-46.889	26.5542	-308.51	-23.9262	-2.34796	
133	1.10833	-284.325	13.177	-8.90269	-280.481	25.2096	-32.2371	-280.661	31.9328	-60.795	-279.724	41.5846	-83.9274	-320.884	-20.5366	-66.4986	-322.609	-25.8323	-93.9662	-321.739	-28.8673	-121.251	-324.997	-47.5505	-65.375	-327.231	-50.4414	-93.9904	-324.406	-62.3119	-123.213	-314.379	-68.7741	-50.4415	-317.459	-75.2474	-77.1374	-314.543	-85.8442	-105.533	-298.941	-82.2495	-37.2925	-298.233	-94.3588	-56.5333	-295.618	-101.483	-77.9307	-309.884	-49.2229	0.270071	-299.515	-42.0631	26.5655	-308.932	-16.4355	2.93985	
134	1.11667	-278.286	16.8195	-3.70135	-275.673	27.3159	-33.5716	-273.608	37.1942	-59.5693	-269.099	46.2724	-78.7115	-322.531	-7.13358	-64.6577	-324.208	-4.5736	-96.2007	-324.121	-12.4071	-117.585	-330.865	-28.9393	-64.6573	-334.538	-34.309	-90.256	-331.042	-39.1782	-126.334	-323.589	-55.0012	-51.769	-327.832	-60.5061	-78.3006	-326.957	-73.038	-105.515	-312.83	-72.6169	-40.2924	-313.56	-79.3444	-61.254	-312.756	-88.1015	-81.6358	-315.503	-40.893	-4.01114	-307.091	-33.212	23.5687	-310.964	-4.90972	2.36802	
135	1.125	-272.364	22.2867	1.28865	-265.783	33.9297	-26.4834	-263.203	43.7797	-56.2921	-256.321	55.3376	-73.0637	-320.842	8.09373	-66.2954	-323.434	7.82258	-93.228	-323.961	5.04957	-117.755	-331.852	-12.9922	-62.5825	-335.229	-13.7265	-89.4357	-335.84	-24.503	-125.676	-329.065	-35.4313	-54.6733	-335.921	-46.2133	-78.9522	-336.529	-51.7619	-104.675	-318.418	-56.0214	-36.6292	-323.957	-67.3574	-60.5011	-326.067	-76.0875	-79.8579	-318.833	-26.5911	-0.660622	-308.881	-29.2398	25.0379	-307.166	4.87288	5.29982	
136	1.13333	-267.329	23.7639	-0.822214	-257.617	37.9919	-26.8941	-250.079	49.8305	-48.815	-243.962	60.3698	-69.0649	-313.946	23.6708	-64.0915	-317.475	24.6424	-89.3182	-318.281	23.2814	-113.27	-329.146	4.32448	-61.7399	-332.765	4.89567	-90.4423	-332.373	0.754246	-124.523	-329.632	-21.393	-51.0292	-336.443	-24.7253	-74.2398	-340.792	-33.1332	-104.4	-325.895	-43.4087	-40.5371	-330.109	-53.7804	-58.0797	-333.932	-60.0825	-83.3514	-316.261	-13.4288	1.76042	-308.698	-18.0992	27.4676	-302.605	12.9033	7.1773	
137	1.14167	-258.909	27.6054	2.62092	-245.648	39.8594	-20.6272	-239.916	50.4428	-48.5527	-231.077	60.3999	-66.8423	-302.987	35.9047	-57.3656	-303.007	42.0388	-87.5341	-303.735	41.9867	-112.627	-320.118	18.5938	-56.6232	-326.07	22.0796	-88.8222	-329.366	16.6542	-120.065	-327.55	-7.35138	-48.0474	-335.619	-10.0948	-73.2037	-338.786	-12.0418	-103.889	-325.022	-27.7226	-38.8199	-331.588	-36.4299	-59.8636	-336.487	-40.6156	-78.4219	-314.3	-1.91582	3.00608	-303.618	-8.18573	29.1883	-293.977	24.9261	9.02545	
138	1.15	-246.455	28.2692	7.97289	-234.409	38.3703	-17.6721	-224.139	52.8775	-46.7611	-214.044	59.3226	-61.9632	-290.109	46.8793	-57.2961	-291.749	51.0764	-85.6758	-289.838	53.7975	-111.903	-313.562	32.2831	-57.8532	-315.716	36.7147	-86.9136	-318.748	36.1425	-116.891	-320.435	9.51628	-46.362	-328.249	9.89136	-72.9172	-335.258	3.52912	-98.3911	-321.393	-9.86222	-39.3989	-330.807	-17.5659	-59.8139	-335.098	-19.7397	-78.2037	-312.089	9.14808	1.61648	-297.744	1.95084	32.2825	-283.438	32.6791	9.5445	
139	1.15833	-233.3	31.3143	8.04976	-220.246	39.7247	-17.0203	-211.268	47.998	-43.3098	-201.791	52.8096	-58.7949	-272.528	56.436	-55.2312	-272.638	61.8805	-83.3918	-275.262	62.3431	-104.964	-302.201	45.0135	-56.6088	-302.304	50.3483	-79.9048	-303.391	52.9504	-112.451	-312.261	23.7297	-47.1761	-321.802	25.8401	-73.1237	-325.528	25.9305	-99.3043	-315.289	2.68903	-32.5868	-325.218	0.817977	-55.0182	-331.114	-2.11878	-80.335	-298.606	19.4736	6.7283	-294.026	12.5616	29.9513	-271.728	35.4737	14.7159	
140	1.16667	-224.3	29.587	10.3213	-206.887	35.9775	-12.1384	-195.225	44.146	-39.039	-183.657	49.4114	-58.9421	-260.505	59.7736	-53.463	-259.499	67.19	-81.3461	-260.606	69.681	-103.538	-283.941	53.8376	-51.396	-288.69	60.5648	-78.9704	-289.092	64.8528	-113.183	-300.065	37.0924	-44.4264	-308.857	42.1447	-71.9767	-313.556	42.4282	-97.1483	-308.901	16.1802	-32.7488	-318.48	17.341	-53.6449	-321.653	18.3401	-75.4053	-288.839	28.1024	6.69084	-281.753	18.0085	35.1954	-257.808	44.0294	14.3664	
141	1.175	-211.939	27.315	13.5692	-197.624	31.9413	-10.8488	-180.095	39.9838	-34.1811	-173.022	40.9573	-52.6094	-242.524	61.9117	-49.1553	-241.783	68.6746	-74.7314	-240.169	74.0554	-103.076	-271.861	59.3891	-48.8975	-270.268	69.4362	-80.9175	-271.966	72.7558	-109.43	-291.68	44.2258	-44.6706	-297.703	48.9092	-67.2539	-303.48	50.5025	-92.125	-302.372	26.9005	-32.1718	-309.764	29.1186	-49.2896	-315.911	32.8862	-76.7267	-279.502	34.8457	4.25784	-275.949	24.8445	32.8206	-247.786	41.491	16.4807	
142	1.18333	-200.924	23.1518	17.8823	-186.227	27.6611	-7.86377	-170.315	32.7953	-33.1262	-161.637	34.0043	-52.5997	-229.442	61.7826	-47.4812	-229.181	67.5063	-74.8236	-227.325	71.2207	-98.0202	-255.105	62.3496	-50.6844	-258.464	69.6186	-77.0971	-260.252	73.1047	-111.052	-275.321	48.3536	-41.5385	-284.674	53.9799	-65.8415	-286.001	59.3045	-96.1232	-292.389	31.8782	-30.9393	-296.567	37.2978	-49.5929	-307.277	39.9994	-71.9597	-267.459	37.9096	7.24969	-268.504	27.7428	33.9551	-237.744	41.8532	19.4856	
143	1.19167	-193.549	20.0933	18.1284	-178.453	21.4714	-6.83271	-160.85	24.9471	-30.1981	-151.152	25.6026	-50.8045	-216.127	57.2628	-47.9217	-213.511	63.2249	-72.9167	-210.524	66.698	-98.0409	-245.852	61.0813	-51.7553	-245.412	67.3718	-79.2589	-242.136	71.6429	-110.952	-264.976	48.3193	-40.5331	-273.111	56.1978	-68.2938	-275.559	59.2132	-90.4452	-280.252	31.0098	-27.4181	-285.591	39.837	-49.2476	-295.65	44.3427	-74.4074	-256.236	40.9621	6.72682	-259.277	27.5589	35.0796	-227.662	38.8355	19.3329	
144	1.2	-186.26	13.4675	19.9876	-166.055	16.6321	-4.77769	-150.905	17.7779	-29.2101	-137.75	17.5643	-49.3514	-204.699	52.2895	-46.9271	-197.535	55.9851	-74.1124	-194.274	59.7008	-100.775	-233.058	56.6996	-49.4924	-231.469	62.426	-76.0426	-226.952	65.886	-111.211	-253.325	48.3639	-45.0267	-258.893	53.6945	-64.3383	-265.508	57.529	-95.1295	-266.749	30.6881	-29.0454	-277.159	38.6628	-51.6905	-284.431	43.4298	-69.6853	-246.318	37.8749	7.32813	-249.461	27.1896	36.0248	-215.947	37.2422	17.4222	
